#N canvas 560 98 829 767 12;
#X obj 95 398 comport;
#X msg 233 241 devices;
#X text 293 241 Lister les ports dans la fenêtre Pd;
#X obj 390 664 print;
#X text 432 664 Les données reçues sont imprimées dans la fenêtre Pd;
#X msg 324 364 close;
#X text 374 365 Libérer le port;
#X obj 95 454 pdchoco/slip_parse;
#X obj 96 528 oscparse;
#X obj 96 555 list trim;
#X text 229 455 Traiter les données SLIP;
#X text 162 528 Traiter les données OSC;
#X text 169 553 Retirer le préfixe list;
#X obj 97 187 pdchoco/slip_pack;
#X floatatom 134 73 5 0 0 0 - - - 0;
#X floatatom 331 69 5 0 0 0 - - - 0;
#X obj 20 58 oscformat ?;
#X obj 20 28 bng 19 250 50 0 empty empty empty 0 -10 0 12 #fcfcfc #000000 #000000;
#X obj 181 416 print comportinfo;
#X msg 238 292 close \, baud 115200 \, open 4 \, info;
#X obj 133 101 oscformat -f i input a;
#X obj 330 97 oscformat -f i input b;
#X obj 87 653 route value;
#X floatatom 92 687 5 0 0 0 - - - 0;
#X msg 341 128 -1 1;
#X msg 398 126 100 50;
#X obj 326 157 oscformat -f ii twoInts;
#X floatatom 314 678 5 0 0 0 - - - 0;
#X obj 97 622 route output a0 twoInts;
#X obj 178 660 unpack 0 0;
#X floatatom 169 692 5 0 0 0 - - - 0;
#X floatatom 241 692 5 0 0 0 - - - 0;
#X msg 539 161 symbol yessir;
#X obj 539 188 oscformat -f s string;
#X msg 579 253 3 33 34 35;
#X obj 579 280 oscformat -f b blob;
#X connect 0 0 7 0;
#X connect 0 1 18 0;
#X connect 1 0 0 0;
#X connect 5 0 0 0;
#X connect 7 0 8 0;
#X connect 8 0 9 0;
#X connect 9 0 28 0;
#X connect 13 0 0 0;
#X connect 14 0 20 0;
#X connect 15 0 21 0;
#X connect 16 0 13 0;
#X connect 17 0 16 0;
#X connect 19 0 0 0;
#X connect 20 0 13 0;
#X connect 21 0 13 0;
#X connect 22 0 23 0;
#X connect 24 0 26 0;
#X connect 25 0 26 0;
#X connect 26 0 13 0;
#X connect 28 0 22 0;
#X connect 28 1 29 0;
#X connect 28 2 27 0;
#X connect 28 3 3 0;
#X connect 29 0 30 0;
#X connect 29 1 31 0;
#X connect 32 0 33 0;
#X connect 33 0 13 0;
#X connect 34 0 35 0;
#X connect 35 0 13 0;
